# xmcd
# 
# Track frame offsets:
#     150
#     14950
#     32202
#     47277
#     64657
#     78325
#     95337
#     110482
#     129062
#     142712
#     161025
#     184382
#     200040
#     217112
#     233640
#     249790
#     266827
#     283965
# 
# Disc length: 4056
# 
# Revision: 0
# Processed by: cddbd v1.5.2PL0 Copyright (c) Steve Scherf et al.
# Submitted via: BonkEnc v1.0.8
# 
DISCID=030fd612
DTITLE=INXS - The Greatest Hits
DYEAR=1994
DGENRE=Rock
TTITLE0=Mystify
TTITLE1=Suicide Blonde
TTITLE2=Taste It
TTITLE3=The Strangest Party (These Are The Times)
TTITLE4=Need You Tonight
TTITLE5=Original Sin
TTITLE6=Heaven Sent
TTITLE7=Disappear
TTITLE8=Never Tear Us Apart
TTITLE9=The Gift
TTITLE10=Devil Inside
TTITLE11=Beautiful Girl
TTITLE12=Deliver Me
TTITLE13=New Sensation
TTITLE14=What You Need
TTITLE15=Listen Like Thieves
TTITLE16=Bitter Tears
TTITLE17=Baby Don't Cry
EXTD=YEAR: 1994
EXTT0=
EXTT1=
EXTT2=
EXTT3=
EXTT4=
EXTT5=
EXTT6=
EXTT7=
EXTT8=
EXTT9=
EXTT10=
EXTT11=
EXTT12=
EXTT13=
EXTT14=
EXTT15=
EXTT16=
EXTT17=
PLAYORDER=
